<?xml version="1.0" encoding="UTF-8" standalone="no"?><!DOCTYPE svg PUBLIC "-//W3C//DTD SVG 1.1//EN" "http://www.w3.org/Graphics/SVG/1.1/DTD/svg11.dtd"><svg width="100%" height="100%" viewBox="0 0 246 246" version="1.1" xmlns="http://www.w3.org/2000/svg" xmlns:xlink="http://www.w3.org/1999/xlink" xml:space="preserve" style="fill-rule:evenodd;clip-rule:evenodd;stroke-linejoin:round;stroke-miterlimit:1.41421;"><path d="M103.054,28.403c3.782,-7.417 11.402,-12.088 19.727,-12.091c8.325,-0.004 15.95,4.659 19.739,12.072c24.069,47.098 64.3,125.819 86.775,169.796c3.51,6.866 3.196,15.064 -0.828,21.642c-4.023,6.578 -11.178,10.591 -18.889,10.595c-46.529,0.022 -126.863,0.06 -173.392,0.082c-7.712,0.003 -14.87,-4.003 -18.9,-10.578c-4.03,-6.574 -4.351,-14.771 -0.848,-21.641c22.433,-43.998 62.591,-122.757 86.616,-169.877Z" style="fill:#ffd500;"/><path d="M122.879,16.312l0.097,0l0.098,0.001l0.097,0.002l0.097,0.002l0.097,0.002l0.097,0.003l0.097,0.003l0.097,0.003l0.097,0.004l0.097,0.005l0.097,0.005l0.097,0.005l0.096,0.005l0.097,0.007l0.096,0.006l0.096,0.007l0.097,0.007l0.096,0.008l0.096,0.008l0.096,0.009l0.096,0.009l0.096,0.009l0.096,0.01l0.095,0.01l0.096,0.011l0.095,0.011l0.096,0.011l0.095,0.012l0.095,0.012l0.095,0.013l0.095,0.013l0.095,0.014l0.095,0.014l0.094,0.014l0.095,0.014l0.095,0.016l0.094,0.015l0.094,0.016l0.094,0.016l0.094,0.017l0.094,0.017l0.094,0.018l0.094,0.017l0.093,0.019l0.094,0.018l0.093,0.02l0.093,0.019l0.094,0.02l0.093,0.02l0.093,0.021l0.092,0.021l0.093,0.021l0.092,0.022l0.093,0.022l0.092,0.023l0.092,0.023l0.092,0.023l0.092,0.024l0.092,0.024l0.092,0.025l0.091,0.025l0.091,0.025l0.092,0.026l0.091,0.026l0.091,0.026l0.091,0.027l0.09,0.027l0.091,0.028l0.09,0.028l0.09,0.028l0.091,0.029l0.089,0.029l0.09,0.03l0.09,0.03l0.089,0.03l0.09,0.031l0.089,0.031l0.089,0.031l0.089,0.032l0.089,0.032l0.088,0.032l0.089,0.033l0.088,0.034l0.088,0.033l0.088,0.034l0.088,0.034l0.088,0.035l0.087,0.035l0.088,0.036l0.087,0.036l0.087,0.036l0.087,0.036l0.086,0.037l0.087,0.037l0.086,0.038l0.086,0.038l0.086,0.038l0.086,0.039l0.086,0.039l0.085,0.04l0.085,0.039l0.085,0.041l0.085,0.04l0.085,0.041l0.085,0.041l0.084,0.042l0.084,0.042l0.084,0.042l0.084,0.043l0.084,0.043l0.083,0.043l0.083,0.044l0.083,0.044l0.083,0.044l0.083,0.045l0.082,0.045l0.083,0.045l0.082,0.046l0.082,0.046l0.081,0.047l0.082,0.046l0.081,0.048l0.081,0.047l0.081,0.048l0.081,0.048l0.08,0.049l0.081,0.049l0.08,0.049l0.079,0.049l0.08,0.05l0.08,0.05l0.079,0.051l0.079,0.051l0.079,0.051l0.078,0.052l0.078,0.052l0.079,0.052l0.078,0.052l0.077,0.053l0.078,0.053l0.077,0.054l0.077,0.054l0.077,0.054l0.076,0.055l0.077,0.054l0.076,0.056l0.076,0.055l0.075,0.056l0.076,0.056l0.075,0.057l0.075,0.057l0.075,0.057l0.074,0.057l0.075,0.058l0.074,0.058l0.073,0.058l0.074,0.059l0.073,0.059l0.073,0.06l0.073,0.059l0.073,0.06l0.072,0.061l0.072,0.06l0.072,0.061l0.072,0.062l0.071,0.061l0.071,0.062l0.071,0.062l0.07,0.063l0.071,0.063l0.07,0.063l0.07,0.063l0.069,0.064l0.07,0.064l0.069,0.065l0.068,0.064l0.069,0.065l0.068,0.066l0.068,0.065l0.068,0.066l0.067,0.066l0.067,0.067l0.067,0.067l0.067,0.067l0.066,0.067l0.066,0.068l0.066,0.068l0.066,0.068l0.065,0.069l0.065,0.069l0.065,0.069l0.064,0.069l0.064,0.07l0.064,0.07l0.064,0.071l0.063,0.07l0.063,0.071l0.063,0.072l0.062,0.071l0.063,0.072l0.061,0.072l0.062,0.073l0.061,0.072l0.061,0.073l0.061,0.074l0.06,0.073l0.061,0.074l0.059,0.074l0.06,0.075l0.059,0.074l0.059,0.075l0.059,0.076l0.058,0.075l0.058,0.076l0.058,0.076l0.057,0.077l0.057,0.076l0.057,0.077l0.056,0.077l0.057,0.078l0.055,0.078l0.056,0.078l0.055,0.078l0.055,0.079l0.055,0.079l0.054,0.079l0.054,0.079l0.053,0.08l0.054,0.08l0.053,0.08l0.052,0.08l0.053,0.081l0.052,0.081l0.051,0.082l0.052,0.081l0.051,0.082l0.051,0.082l0.05,0.082l0.05,0.083l0.05,0.083l0.049,0.083l0.049,0.084l0.049,0.083l0.048,0.084l0.048,0.084l0.048,0.085l0.047,0.084l0.047,0.085l0.047,0.086l0.046,0.085l0.046,0.086l0.046,0.086l0.045,0.086l0.045,0.087l0.045,0.086l86.775,169.796l0.041,0.08l0.041,0.081l0.04,0.081l0.04,0.081l0.04,0.081l0.039,0.081l0.039,0.081l0.038,0.081l0.038,0.082l0.038,0.081l0.038,0.082l0.037,0.082l0.036,0.082l0.037,0.082l0.036,0.082l0.036,0.082l0.035,0.083l0.035,0.082l0.035,0.083l0.034,0.082l0.034,0.083l0.033,0.083l0.034,0.083l0.033,0.083l0.032,0.083l0.032,0.083l0.032,0.083l0.032,0.084l0.031,0.083l0.031,0.084l0.03,0.084l0.03,0.083l0.03,0.084l0.03,0.084l0.029,0.084l0.028,0.084l0.029,0.085l0.028,0.084l0.027,0.084l0.028,0.085l0.027,0.084l0.026,0.085l0.027,0.085l0.026,0.084l0.025,0.085l0.025,0.085l0.025,0.085l0.025,0.085l0.024,0.085l0.024,0.086l0.023,0.085l0.024,0.085l0.022,0.086l0.023,0.085l0.022,0.086l0.022,0.085l0.021,0.086l0.021,0.086l0.021,0.085l0.02,0.086l0.02,0.086l0.02,0.086l0.019,0.086l0.019,0.086l0.019,0.086l0.018,0.087l0.018,0.086l0.018,0.086l0.017,0.086l0.017,0.087l0.016,0.086l0.017,0.087l0.015,0.086l0.016,0.087l0.015,0.086l0.015,0.087l0.014,0.087l0.015,0.086l0.013,0.087l0.014,0.087l0.013,0.087l0.013,0.087l0.012,0.087l0.012,0.087l0.012,0.087l0.011,0.087l0.011,0.087l0.011,0.087l0.01,0.087l0.01,0.087l0.01,0.087l0.009,0.088l0.009,0.087l0.008,0.087l0.009,0.087l0.007,0.088l0.008,0.087l0.007,0.087l0.007,0.088l0.007,0.087l0.006,0.087l0.005,0.088l0.006,0.087l0.005,0.088l0.005,0.087l0.004,0.087l0.004,0.088l0.004,0.087l0.003,0.088l0.003,0.087l0.003,0.088l0.003,0.087l0.002,0.088l0.001,0.087l0.002,0.088l0,0.087l0.001,0.088l0,0.087l0,0.088l0,0.087l-0.001,0.088l-0.001,0.087l-0.001,0.088l-0.002,0.087l-0.002,0.088l-0.003,0.087l-0.003,0.088l-0.003,0.087l-0.003,0.087l-0.004,0.088l-0.004,0.087l-0.005,0.088l-0.005,0.087l-0.005,0.087l-0.006,0.088l-0.006,0.087l-0.006,0.087l-0.007,0.087l-0.006,0.088l-0.008,0.087l-0.007,0.087l-0.008,0.087l-0.009,0.087l-0.008,0.087l-0.009,0.087l-0.01,0.087l-0.01,0.087l-0.01,0.087l-0.01,0.087l-0.011,0.087l-0.011,0.087l-0.011,0.087l-0.012,0.087l-0.012,0.086l-0.013,0.087l-0.012,0.087l-0.014,0.086l-0.013,0.087l-0.014,0.086l-0.014,0.087l-0.015,0.086l-0.015,0.087l-0.015,0.086l-0.015,0.086l-0.016,0.087l-0.017,0.086l-0.016,0.086l-0.017,0.086l-0.017,0.086l-0.018,0.086l-0.018,0.086l-0.018,0.086l-0.019,0.086l-0.019,0.085l-0.019,0.086l-0.02,0.086l-0.02,0.085l-0.02,0.086l-0.021,0.085l-0.021,0.085l-0.021,0.086l-0.022,0.085l-0.022,0.085l-0.023,0.085l-0.022,0.085l-0.023,0.085l-0.024,0.085l-0.024,0.085l-0.024,0.084l-0.024,0.085l-0.025,0.084l-0.025,0.085l-0.026,0.084l-0.026,0.084l-0.026,0.085l-0.026,0.084l-0.027,0.084l-0.027,0.084l-0.028,0.084l-0.028,0.083l-0.028,0.084l-0.029,0.084l-0.029,0.083l-0.029,0.084l-0.03,0.083l-0.029,0.083l-0.031,0.083l-0.03,0.083l-0.031,0.083l-0.032,0.083l-0.031,0.083l-0.032,0.083l-0.033,0.082l-0.032,0.083l-0.033,0.082l-0.034,0.082l-0.033,0.082l-0.034,0.082l-0.035,0.082l-0.035,0.082l-0.035,0.082l-0.035,0.081l-0.036,0.082l-0.036,0.081l-0.036,0.081l-0.037,0.081l-0.037,0.081l-0.038,0.081l-0.037,0.081l-0.039,0.081l-0.038,0.08l-0.039,0.081l-0.039,0.08l-0.04,0.08l-0.039,0.08l-0.041,0.08l-0.04,0.08l-0.041,0.079l-0.041,0.08l-0.042,0.079l-0.042,0.08l-0.042,0.079l-0.042,0.079l-0.043,0.079l-0.044,0.078l-0.043,0.079l-0.044,0.078l-0.044,0.079l-0.045,0.078l-0.045,0.078l-0.045,0.078l-0.046,0.077l-0.046,0.078l-0.046,0.078l-0.047,0.077l-0.047,0.077l-0.047,0.077l-0.047,0.077l-0.048,0.076l-0.049,0.077l-0.048,0.076l-0.049,0.075l-0.049,0.076l-0.049,0.075l-0.049,0.075l-0.05,0.075l-0.05,0.075l-0.051,0.074l-0.05,0.074l-0.051,0.074l-0.052,0.074l-0.051,0.073l-0.052,0.073l-0.052,0.073l-0.052,0.073l-0.053,0.072l-0.053,0.072l-0.053,0.072l-0.053,0.072l-0.054,0.071l-0.054,0.072l-0.054,0.07l-0.054,0.071l-0.055,0.071l-0.055,0.07l-0.055,0.07l-0.055,0.069l-0.056,0.07l-0.056,0.069l-0.056,0.069l-0.057,0.069l-0.057,0.068l-0.057,0.068l-0.057,0.068l-0.057,0.068l-0.058,0.067l-0.058,0.067l-0.058,0.067l-0.059,0.067l-0.059,0.066l-0.059,0.066l-0.059,0.066l-0.059,0.066l-0.06,0.065l-0.06,0.065l-0.06,0.065l-0.061,0.065l-0.06,0.064l-0.061,0.064l-0.062,0.064l-0.061,0.063l-0.062,0.064l-0.062,0.063l-0.062,0.062l-0.062,0.063l-0.063,0.062l-0.062,0.062l-0.063,0.062l-0.064,0.061l-0.063,0.061l-0.064,0.061l-0.064,0.061l-0.064,0.06l-0.064,0.06l-0.065,0.06l-0.065,0.059l-0.065,0.06l-0.065,0.059l-0.066,0.058l-0.066,0.059l-0.065,0.058l-0.067,0.058l-0.066,0.057l-0.067,0.058l-0.066,0.057l-0.067,0.057l-0.068,0.056l-0.067,0.056l-0.068,0.056l-0.068,0.056l-0.068,0.055l-0.068,0.056l-0.069,0.054l-0.068,0.055l-0.069,0.054l-0.069,0.054l-0.07,0.054l-0.069,0.053l-0.07,0.054l-0.07,0.052l-0.07,0.053l-0.07,0.052l-0.071,0.052l-0.071,0.052l-0.07,0.051l-0.072,0.052l-0.071,0.051l-0.071,0.05l-0.072,0.05l-0.072,0.05l-0.072,0.05l-0.072,0.05l-0.073,0.049l-0.072,0.049l-0.073,0.048l-0.073,0.048l-0.074,0.048l-0.073,0.048l-0.073,0.048l-0.074,0.047l-0.074,0.046l-0.074,0.047l-0.075,0.046l-0.074,0.046l-0.075,0.046l-0.075,0.045l-0.075,0.045l-0.075,0.045l-0.075,0.044l-0.076,0.044l-0.075,0.044l-0.076,0.044l-0.076,0.043l-0.077,0.043l-0.076,0.043l-0.076,0.042l-0.077,0.042l-0.077,0.042l-0.077,0.041l-0.077,0.041l-0.078,0.041l-0.077,0.041l-0.078,0.04l-0.078,0.04l-0.078,0.039l-0.078,0.04l-0.078,0.039l-0.079,0.038l-0.078,0.039l-0.079,0.038l-0.079,0.038l-0.079,0.037l-0.08,0.037l-0.079,0.037l-0.08,0.037l-0.079,0.036l-0.08,0.036l-0.08,0.035l-0.08,0.036l-0.081,0.035l-0.08,0.034l-0.081,0.034l-0.08,0.034l-0.081,0.034l-0.081,0.034l-0.082,0.033l-0.081,0.032l-0.081,0.033l-0.082,0.032l-0.082,0.032l-0.081,0.031l-0.082,0.031l-0.083,0.031l-0.082,0.031l-0.082,0.03l-0.083,0.03l-0.082,0.029l-0.083,0.029l-0.083,0.029l-0.083,0.029l-0.083,0.028l-0.083,0.028l-0.084,0.028l-0.083,0.027l-0.084,0.027l-0.084,0.026l-0.084,0.027l-0.084,0.026l-0.084,0.025l-0.084,0.026l-0.085,0.025l-0.084,0.024l-0.085,0.025l-0.084,0.024l-0.085,0.023l-0.085,0.023l-0.085,0.023l-0.085,0.023l-0.086,0.022l-0.085,0.022l-0.085,0.022l-0.086,0.021l-0.086,0.021l-0.086,0.021l-0.085,0.02l-0.086,0.02l-0.087,0.02l-0.086,0.019l-0.086,0.019l-0.087,0.019l-0.086,0.018l-0.087,0.018l-0.086,0.017l-0.087,0.018l-0.087,0.017l-0.087,0.016l-0.087,0.016l-0.087,0.016l-0.088,0.016l-0.087,0.015l-0.088,0.015l-0.087,0.014l-0.088,0.014l-0.087,0.014l-0.088,0.014l-0.088,0.013l-0.088,0.012l-0.088,0.013l-0.088,0.012l-0.089,0.012l-0.088,0.011l-0.088,0.011l-0.089,0.011l-0.088,0.01l-0.089,0.01l-0.089,0.009l-0.088,0.01l-0.089,0.008l-0.089,0.009l-0.089,0.008l-0.089,0.008l-0.089,0.007l-0.089,0.008l-0.09,0.006l-0.089,0.007l-0.089,0.006l-0.09,0.005l-0.089,0.006l-0.09,0.005l-0.09,0.004l-0.089,0.004l-0.09,0.004l-0.09,0.004l-0.09,0.003l-0.09,0.003l-0.09,0.002l-0.09,0.002l-0.09,0.002l-0.09,0.001l-0.091,0.001l-0.09,0.001l-0.09,0l-173.392,0.082l-0.091,-0.001l-0.09,0l-0.09,-0.001l-0.09,-0.001l-0.09,-0.002l-0.09,-0.002l-0.09,-0.002l-0.09,-0.003l-0.09,-0.003l-0.09,-0.003l-0.09,-0.004l-0.09,-0.004l-0.089,-0.005l-0.09,-0.005l-0.09,-0.005l-0.089,-0.005l-0.089,-0.006l-0.09,-0.007l-0.089,-0.006l-0.089,-0.007l-0.089,-0.008l-0.089,-0.007l-0.089,-0.009l-0.089,-0.008l-0.089,-0.009l-0.089,-0.009l-0.089,-0.009l-0.088,-0.01l-0.089,-0.011l-0.088,-0.01l-0.089,-0.011l-0.088,-0.011l-0.088,-0.012l-0.088,-0.012l-0.088,-0.012l-0.088,-0.013l-0.088,-0.013l-0.088,-0.013l-0.088,-0.014l-0.088,-0.014l-0.087,-0.014l-0.088,-0.015l-0.087,-0.015l-0.087,-0.016l-0.087,-0.015l-0.088,-0.017l-0.087,-0.016l-0.087,-0.017l-0.086,-0.017l-0.087,-0.018l-0.087,-0.017l-0.086,-0.019l-0.087,-0.018l-0.086,-0.019l-0.086,-0.019l-0.086,-0.02l-0.086,-0.02l-0.086,-0.02l-0.086,-0.02l-0.086,-0.021l-0.086,-0.021l-0.085,-0.022l-0.085,-0.022l-0.086,-0.022l-0.085,-0.023l-0.085,-0.023l-0.085,-0.023l-0.085,-0.023l-0.085,-0.024l-0.084,-0.024l-0.085,-0.025l-0.084,-0.025l-0.084,-0.025l-0.085,-0.026l-0.084,-0.026l-0.084,-0.026l-0.083,-0.026l-0.084,-0.027l-0.084,-0.027l-0.083,-0.028l-0.083,-0.028l-0.083,-0.028l-0.084,-0.028l-0.082,-0.029l-0.083,-0.029l-0.083,-0.03l-0.082,-0.03l-0.083,-0.03l-0.082,-0.03l-0.082,-0.031l-0.082,-0.031l-0.082,-0.031l-0.082,-0.032l-0.082,-0.032l-0.081,-0.032l-0.081,-0.033l-0.082,-0.033l-0.081,-0.033l-0.081,-0.034l-0.08,-0.034l-0.081,-0.034l-0.08,-0.035l-0.081,-0.035l-0.08,-0.035l-0.08,-0.035l-0.08,-0.036l-0.08,-0.036l-0.079,-0.037l-0.08,-0.036l-0.079,-0.038l-0.079,-0.037l-0.079,-0.038l-0.079,-0.038l-0.079,-0.038l-0.078,-0.038l-0.079,-0.039l-0.078,-0.04l-0.078,-0.039l-0.078,-0.04l-0.078,-0.04l-0.077,-0.041l-0.077,-0.04l-0.078,-0.041l-0.077,-0.042l-0.077,-0.041l-0.077,-0.042l-0.076,-0.043l-0.077,-0.042l-0.076,-0.043l-0.076,-0.043l-0.076,-0.044l-0.076,-0.044l-0.075,-0.044l-0.076,-0.044l-0.075,-0.045l-0.075,-0.045l-0.075,-0.045l-0.074,-0.045l-0.075,-0.046l-0.074,-0.047l-0.074,-0.046l-0.074,-0.047l-0.074,-0.047l-0.074,-0.047l-0.073,-0.048l-0.074,-0.048l-0.073,-0.048l-0.072,-0.048l-0.073,-0.049l-0.073,-0.049l-0.072,-0.05l-0.072,-0.049l-0.072,-0.05l-0.072,-0.05l-0.071,-0.051l-0.072,-0.051l-0.071,-0.051l-0.071,-0.051l-0.071,-0.052l-0.07,-0.052l-0.071,-0.052l-0.07,-0.053l-0.07,-0.052l-0.069,-0.053l-0.07,-0.054l-0.069,-0.054l-0.07,-0.053l-0.069,-0.055l-0.068,-0.054l-0.069,-0.055l-0.068,-0.055l-0.068,-0.055l-0.068,-0.056l-0.068,-0.056l-0.068,-0.056l-0.067,-0.056l-0.067,-0.057l-0.067,-0.057l-0.066,-0.057l-0.067,-0.058l-0.066,-0.058l-0.066,-0.058l-0.066,-0.058l-0.065,-0.059l-0.066,-0.059l-0.065,-0.059l-0.065,-0.06l-0.065,-0.059l-0.064,-0.06l-0.064,-0.061l-0.064,-0.06l-0.064,-0.061l-0.064,-0.061l-0.063,-0.061l-0.063,-0.062l-0.063,-0.062l-0.063,-0.062l-0.062,-0.062l-0.062,-0.063l-0.062,-0.063l-0.062,-0.063l-0.061,-0.064l-0.061,-0.063l-0.061,-0.064l-0.061,-0.065l-0.061,-0.064l-0.06,-0.065l-0.06,-0.065l-0.06,-0.065l-0.059,-0.066l-0.06,-0.066l-0.059,-0.066l-0.058,-0.066l-0.059,-0.067l-0.058,-0.066l-0.058,-0.067l-0.058,-0.068l-0.058,-0.067l-0.057,-0.068l-0.057,-0.068l-0.057,-0.069l-0.057,-0.068l-0.056,-0.069l-0.056,-0.069l-0.056,-0.07l-0.055,-0.069l-0.056,-0.07l-0.055,-0.07l-0.054,-0.071l-0.055,-0.071l-0.054,-0.07l-0.054,-0.072l-0.054,-0.071l-0.053,-0.072l-0.053,-0.071l-0.053,-0.073l-0.053,-0.072l-0.052,-0.072l-0.052,-0.073l-0.052,-0.073l-0.052,-0.074l-0.051,-0.073l-0.051,-0.074l-0.051,-0.074l-0.05,-0.075l-0.05,-0.074l-0.05,-0.075l-0.05,-0.075l-0.049,-0.075l-0.049,-0.076l-0.049,-0.075l-0.049,-0.076l-0.048,-0.077l-0.048,-0.076l-0.047,-0.077l-0.048,-0.077l-0.047,-0.077l-0.046,-0.077l-0.047,-0.078l-0.046,-0.077l-0.046,-0.078l-0.045,-0.078l-0.045,-0.078l-0.045,-0.078l-0.044,-0.078l-0.044,-0.078l-0.044,-0.079l-0.043,-0.079l-0.043,-0.078l-0.043,-0.079l-0.042,-0.08l-0.042,-0.079l-0.041,-0.079l-0.042,-0.08l-0.041,-0.079l-0.04,-0.08l-0.041,-0.08l-0.039,-0.08l-0.04,-0.08l-0.039,-0.08l-0.039,-0.081l-0.039,-0.08l-0.038,-0.081l-0.038,-0.08l-0.037,-0.081l-0.037,-0.081l-0.037,-0.081l-0.037,-0.081l-0.036,-0.082l-0.036,-0.081l-0.035,-0.082l-0.035,-0.081l-0.035,-0.082l-0.035,-0.082l-0.034,-0.082l-0.034,-0.082l-0.033,-0.082l-0.033,-0.083l-0.033,-0.082l-0.032,-0.083l-0.032,-0.082l-0.032,-0.083l-0.032,-0.083l-0.031,-0.083l-0.03,-0.083l-0.031,-0.083l-0.03,-0.083l-0.029,-0.083l-0.03,-0.084l-0.029,-0.083l-0.028,-0.084l-0.029,-0.083l-0.028,-0.084l-0.027,-0.084l-0.028,-0.084l-0.027,-0.084l-0.026,-0.084l-0.026,-0.084l-0.026,-0.084l-0.026,-0.085l-0.025,-0.084l-0.025,-0.085l-0.025,-0.084l-0.024,-0.085l-0.024,-0.085l-0.023,-0.085l-0.023,-0.084l-0.023,-0.085l-0.023,-0.085l-0.022,-0.086l-0.022,-0.085l-0.021,-0.085l-0.021,-0.085l-0.021,-0.086l-0.021,-0.085l-0.02,-0.086l-0.019,-0.085l-0.02,-0.086l-0.019,-0.086l-0.019,-0.085l-0.018,-0.086l-0.018,-0.086l-0.018,-0.086l-0.017,-0.086l-0.017,-0.086l-0.017,-0.086l-0.016,-0.086l-0.016,-0.087l-0.016,-0.086l-0.015,-0.086l-0.015,-0.087l-0.015,-0.086l-0.014,-0.086l-0.014,-0.087l-0.013,-0.087l-0.014,-0.086l-0.013,-0.087l-0.012,-0.086l-0.012,-0.087l-0.012,-0.087l-0.012,-0.087l-0.011,-0.087l-0.011,-0.087l-0.01,-0.086l-0.01,-0.087l-0.01,-0.087l-0.01,-0.087l-0.009,-0.087l-0.008,-0.088l-0.009,-0.087l-0.008,-0.087l-0.008,-0.087l-0.007,-0.087l-0.007,-0.087l-0.007,-0.088l-0.006,-0.087l-0.006,-0.087l-0.006,-0.087l-0.005,-0.088l-0.005,-0.087l-0.005,-0.087l-0.004,-0.088l-0.004,-0.087l-0.004,-0.088l-0.003,-0.087l-0.003,-0.088l-0.002,-0.087l-0.003,-0.087l-0.001,-0.088l-0.002,-0.087l-0.001,-0.088l-0.001,-0.087l0,-0.088l-0.001,-0.087l0.001,-0.088l0,-0.087l0.001,-0.088l0.001,-0.087l0.002,-0.088l0.002,-0.087l0.002,-0.088l0.003,-0.087l0.003,-0.088l0.003,-0.087l0.004,-0.088l0.004,-0.087l0.004,-0.088l0.005,-0.087l0.005,-0.088l0.005,-0.087l0.006,-0.087l0.006,-0.088l0.006,-0.087l0.007,-0.088l0.007,-0.087l0.008,-0.087l0.007,-0.087l0.008,-0.088l0.009,-0.087l0.009,-0.087l0.009,-0.087l0.01,-0.088l0.009,-0.087l0.011,-0.087l0.01,-0.087l0.011,-0.087l0.011,-0.087l0.012,-0.087l0.012,-0.087l0.012,-0.087l0.013,-0.087l0.013,-0.087l0.013,-0.087l0.014,-0.086l0.014,-0.087l0.014,-0.087l0.015,-0.087l0.015,-0.086l0.016,-0.087l0.015,-0.086l0.017,-0.087l0.016,-0.086l0.017,-0.087l0.017,-0.086l0.017,-0.086l0.018,-0.087l0.019,-0.086l0.018,-0.086l0.019,-0.086l0.019,-0.086l0.02,-0.086l0.02,-0.086l0.02,-0.086l0.021,-0.086l0.021,-0.085l0.021,-0.086l0.022,-0.086l0.022,-0.085l0.022,-0.086l0.023,-0.085l0.023,-0.086l0.023,-0.085l0.024,-0.085l0.024,-0.085l0.025,-0.085l0.024,-0.085l0.026,-0.085l0.025,-0.085l0.026,-0.085l0.026,-0.085l0.027,-0.084l0.027,-0.085l0.027,-0.084l0.028,-0.085l0.027,-0.084l0.029,-0.084l0.028,-0.084l0.029,-0.085l0.03,-0.084l0.029,-0.083l0.03,-0.084l0.031,-0.084l0.031,-0.084l0.031,-0.083l0.031,-0.084l0.032,-0.083l0.032,-0.083l0.033,-0.083l0.032,-0.083l0.034,-0.083l0.033,-0.083l0.034,-0.083l0.034,-0.083l0.035,-0.082l0.035,-0.083l0.035,-0.082l0.036,-0.082l0.036,-0.083l0.036,-0.082l0.037,-0.082l0.037,-0.081l0.037,-0.082l0.038,-0.082l0.038,-0.081l0.038,-0.082l0.039,-0.081l0.039,-0.081l0.04,-0.081l0.039,-0.081l0.041,-0.081l0.04,-0.081l0.041,-0.08l86.616,-169.877l0.045,-0.087l0.044,-0.086l0.046,-0.087l0.045,-0.086l0.046,-0.086l0.046,-0.085l0.047,-0.085l0.047,-0.085l0.047,-0.085l0.048,-0.085l0.048,-0.084l0.048,-0.084l0.049,-0.084l0.048,-0.083l0.05,-0.083l0.049,-0.083l0.05,-0.083l0.051,-0.082l0.05,-0.082l0.051,-0.082l0.052,-0.082l0.051,-0.081l0.052,-0.081l0.052,-0.081l0.053,-0.081l0.053,-0.08l0.053,-0.08l0.054,-0.08l0.054,-0.079l0.054,-0.079l0.054,-0.079l0.055,-0.079l0.055,-0.078l0.056,-0.078l0.055,-0.078l0.057,-0.078l0.056,-0.077l0.057,-0.077l0.057,-0.077l0.057,-0.076l0.058,-0.076l0.058,-0.076l0.058,-0.076l0.058,-0.075l0.059,-0.075l0.059,-0.075l0.06,-0.075l0.06,-0.074l0.06,-0.074l0.06,-0.073l0.061,-0.074l0.06,-0.073l0.062,-0.072l0.061,-0.073l0.062,-0.072l0.062,-0.072l0.062,-0.072l0.063,-0.071l0.063,-0.071l0.063,-0.071l0.064,-0.07l0.064,-0.07l0.064,-0.07l0.064,-0.07l0.065,-0.069l0.065,-0.069l0.065,-0.069l0.065,-0.068l0.066,-0.068l0.066,-0.068l0.067,-0.067l0.066,-0.068l0.067,-0.066l0.067,-0.067l0.067,-0.066l0.068,-0.066l0.068,-0.066l0.068,-0.065l0.069,-0.065l0.068,-0.065l0.069,-0.065l0.07,-0.064l0.069,-0.064l0.07,-0.063l0.07,-0.063l0.07,-0.063l0.071,-0.063l0.07,-0.062l0.071,-0.062l0.072,-0.062l0.071,-0.061l0.072,-0.061l0.072,-0.061l0.072,-0.06l0.073,-0.06l0.073,-0.06l0.073,-0.06l0.073,-0.059l0.073,-0.059l0.074,-0.058l0.074,-0.058l0.074,-0.058l0.075,-0.058l0.074,-0.057l0.075,-0.057l0.076,-0.056l0.075,-0.057l0.076,-0.055l0.075,-0.056l0.076,-0.055l0.077,-0.055l0.076,-0.055l0.077,-0.054l0.077,-0.054l0.077,-0.054l0.078,-0.053l0.077,-0.053l0.078,-0.053l0.078,-0.052l0.079,-0.052l0.078,-0.052l0.079,-0.051l0.079,-0.051l0.079,-0.05l0.079,-0.051l0.08,-0.05l0.08,-0.049l0.08,-0.05l0.08,-0.049l0.08,-0.048l0.081,-0.048l0.081,-0.048l0.081,-0.048l0.081,-0.047l0.082,-0.047l0.081,-0.047l0.082,-0.046l0.082,-0.046l0.082,-0.045l0.083,-0.045l0.083,-0.045l0.082,-0.045l0.083,-0.044l0.084,-0.043l0.083,-0.044l0.084,-0.043l0.083,-0.043l0.084,-0.042l0.084,-0.042l0.085,-0.042l0.084,-0.041l0.085,-0.041l0.085,-0.04l0.085,-0.041l0.085,-0.04l0.086,-0.039l0.085,-0.039l0.086,-0.039l0.086,-0.038l0.086,-0.039l0.086,-0.037l0.087,-0.038l0.086,-0.037l0.087,-0.036l0.087,-0.036l0.087,-0.036l0.088,-0.036l0.087,-0.035l0.088,-0.035l0.087,-0.034l0.088,-0.034l0.088,-0.034l0.089,-0.033l0.088,-0.033l0.089,-0.033l0.088,-0.032l0.089,-0.032l0.089,-0.031l0.09,-0.032l0.089,-0.03l0.089,-0.031l0.09,-0.03l0.09,-0.029l0.09,-0.029l0.09,-0.029l0.09,-0.029l0.09,-0.028l0.091,-0.027l0.091,-0.028l0.09,-0.027l0.091,-0.026l0.091,-0.026l0.092,-0.026l0.091,-0.026l0.091,-0.025l0.092,-0.024l0.092,-0.025l0.092,-0.023l0.092,-0.024l0.092,-0.023l0.092,-0.023l0.092,-0.022l0.093,-0.022l0.093,-0.021l0.092,-0.022l0.093,-0.02l0.093,-0.021l0.093,-0.02l0.093,-0.019l0.094,-0.019l0.093,-0.019l0.094,-0.019l0.094,-0.018l0.093,-0.017l0.094,-0.017l0.094,-0.017l0.094,-0.017l0.095,-0.015l0.094,-0.016l0.095,-0.015l0.094,-0.015l0.095,-0.014l0.095,-0.014l0.094,-0.014l0.095,-0.013l0.095,-0.013l0.096,-0.012l0.095,-0.012l0.095,-0.012l0.096,-0.011l0.095,-0.011l0.096,-0.01l0.096,-0.01l0.095,-0.009l0.096,-0.009l0.096,-0.009l0.096,-0.008l0.097,-0.008l0.096,-0.007l0.096,-0.007l0.097,-0.007l0.096,-0.006l0.097,-0.006l0.096,-0.005l0.097,-0.005l0.097,-0.005l0.097,-0.004l0.097,-0.003l0.097,-0.004l0.097,-0.002l0.097,-0.003l0.097,-0.002l0.098,-0.001l0.097,-0.001l0.098,-0.001l0.097,0l0.098,0Zm-0.157,8l-0.062,0l-0.062,0.001l-0.063,0.001l-0.062,0.001l-0.062,0.002l-0.062,0.001l-0.063,0.003l-0.062,0.002l-0.062,0.002l-0.061,0.003l-0.062,0.003l-0.062,0.004l-0.062,0.004l-0.062,0.004l-0.061,0.004l-0.062,0.004l-0.061,0.005l-0.062,0.005l-0.061,0.005l-0.062,0.006l-0.061,0.006l-0.061,0.006l-0.061,0.006l-0.061,0.007l-0.061,0.006l-0.061,0.007l-0.061,0.008l-0.061,0.007l-0.061,0.008l-0.06,0.008l-0.061,0.009l-0.061,0.009l-0.06,0.008l-0.061,0.01l-0.06,0.009l-0.06,0.01l-0.06,0.01l-0.061,0.01l-0.06,0.01l-0.06,0.011l-0.06,0.011l-0.06,0.011l-0.059,0.012l-0.06,0.011l-0.06,0.012l-0.059,0.013l-0.06,0.012l-0.059,0.013l-0.06,0.013l-0.059,0.013l-0.059,0.014l-0.059,0.013l-0.059,0.014l-0.059,0.015l-0.059,0.014l-0.059,0.015l-0.059,0.015l-0.058,0.015l-0.059,0.016l-0.058,0.015l-0.059,0.016l-0.058,0.016l-0.058,0.017l-0.058,0.017l-0.058,0.017l-0.058,0.017l-0.058,0.017l-0.058,0.018l-0.058,0.018l-0.057,0.018l-0.058,0.018l-0.057,0.019l-0.057,0.019l-0.058,0.019l-0.057,0.02l-0.057,0.019l-0.057,0.02l-0.057,0.02l-0.056,0.02l-0.057,0.021l-0.057,0.021l-0.056,0.021l-0.057,0.021l-0.056,0.022l-0.056,0.021l-0.056,0.022l-0.056,0.023l-0.056,0.022l-0.056,0.023l-0.055,0.023l-0.056,0.023l-0.056,0.023l-0.055,0.024l-0.055,0.024l-0.055,0.024l-0.055,0.024l-0.055,0.025l-0.055,0.025l-0.055,0.025l-0.054,0.025l-0.055,0.025l-0.054,0.026l-0.055,0.026l-0.054,0.026l-0.054,0.027l-0.054,0.026l-0.053,0.027l-0.054,0.027l-0.054,0.028l-0.053,0.027l-0.053,0.028l-0.054,0.028l-0.053,0.028l-0.053,0.028l-0.052,0.029l-0.053,0.029l-0.053,0.029l-0.052,0.029l-0.052,0.03l-0.053,0.03l-0.052,0.03l-0.052,0.03l-0.051,0.03l-0.052,0.031l-0.052,0.031l-0.051,0.031l-0.052,0.031l-0.051,0.032l-0.051,0.031l-0.051,0.032l-0.05,0.033l-0.051,0.032l-0.051,0.032l-0.05,0.033l-0.05,0.033l-0.05,0.034l-0.05,0.033l-0.05,0.034l-0.049,0.033l-0.05,0.035l-0.049,0.034l-0.05,0.034l-0.049,0.035l-0.049,0.035l-0.048,0.035l-0.049,0.035l-0.049,0.036l-0.048,0.036l-0.048,0.036l-0.048,0.036l-0.048,0.036l-0.048,0.037l-0.047,0.036l-0.048,0.038l-0.047,0.037l-0.047,0.037l-0.047,0.038l-0.047,0.037l-0.047,0.038l-0.046,0.039l-0.046,0.038l-0.047,0.039l-0.046,0.038l-0.046,0.039l-0.045,0.04l-0.046,0.039l-0.045,0.04l-0.045,0.039l-0.045,0.04l-0.045,0.041l-0.045,0.04l-0.045,0.041l-0.044,0.04l-0.044,0.041l-0.044,0.041l-0.044,0.042l-0.044,0.041l-0.044,0.042l-0.043,0.042l-0.043,0.042l-0.043,0.042l-0.043,0.043l-0.043,0.043l-0.042,0.043l-0.042,0.043l-0.043,0.043l-0.042,0.043l-0.041,0.044l-0.042,0.044l-0.041,0.044l-0.042,0.044l-0.041,0.045l-0.041,0.044l-0.041,0.045l-0.04,0.045l-0.04,0.045l-0.041,0.046l-0.04,0.045l-0.039,0.046l-0.04,0.046l-0.039,0.046l-0.04,0.046l-0.039,0.046l-0.039,0.047l-0.038,0.047l-0.039,0.047l-0.038,0.047l-0.038,0.047l-0.038,0.048l-0.038,0.048l-0.038,0.048l-0.037,0.047l-0.037,0.049l-0.037,0.048l-0.037,0.049l-0.036,0.049l-0.037,0.049l-0.036,0.049l-0.036,0.049l-0.036,0.05l-0.035,0.049l-0.036,0.05l-0.035,0.05l-0.035,0.05l-0.035,0.051l-0.034,0.05l-0.035,0.051l-0.034,0.051l-0.034,0.051l-0.034,0.051l-0.033,0.052l-0.034,0.052l-0.033,0.051l-0.033,0.052l-0.033,0.052l-0.032,0.053l-0.033,0.052l-0.032,0.053l-0.032,0.053l-0.031,0.053l-0.032,0.053l-0.031,0.053l-0.031,0.054l-0.031,0.054l-0.031,0.054l-0.03,0.054l-0.031,0.054l-0.03,0.054l-0.029,0.055l-0.03,0.054l-0.029,0.055l-0.03,0.056l-0.029,0.055l-0.028,0.055l-0.033,0.064l-86.608,169.862l-0.03,0.058l-0.026,0.052l-0.026,0.052l-0.025,0.052l-0.026,0.051l-0.025,0.053l-0.024,0.051l-0.025,0.052l-0.024,0.052l-0.024,0.053l-0.024,0.052l-0.024,0.052l-0.023,0.053l-0.024,0.052l-0.023,0.053l-0.023,0.053l-0.022,0.052l-0.022,0.053l-0.022,0.052l-0.022,0.053l-0.022,0.053l-0.021,0.053l-0.022,0.053l-0.021,0.053l-0.02,0.053l-0.021,0.053l-0.02,0.054l-0.02,0.053l-0.02,0.053l-0.02,0.054l-0.019,0.053l-0.019,0.054l-0.019,0.053l-0.019,0.054l-0.018,0.054l-0.019,0.053l-0.018,0.054l-0.018,0.054l-0.017,0.054l-0.018,0.054l-0.017,0.054l-0.017,0.054l-0.017,0.054l-0.016,0.054l-0.016,0.054l-0.016,0.054l-0.016,0.055l-0.016,0.054l-0.015,0.054l-0.015,0.055l-0.015,0.054l-0.015,0.055l-0.015,0.054l-0.014,0.055l-0.014,0.054l-0.014,0.055l-0.013,0.055l-0.014,0.055l-0.013,0.054l-0.013,0.055l-0.013,0.055l-0.012,0.055l-0.012,0.055l-0.013,0.055l-0.011,0.055l-0.012,0.055l-0.011,0.055l-0.012,0.055l-0.011,0.055l-0.01,0.055l-0.011,0.056l-0.01,0.055l-0.01,0.055l-0.01,0.055l-0.01,0.056l-0.009,0.055l-0.009,0.055l-0.009,0.056l-0.009,0.055l-0.009,0.056l-0.008,0.055l-0.008,0.056l-0.008,0.055l-0.007,0.056l-0.008,0.055l-0.007,0.056l-0.007,0.056l-0.007,0.055l-0.006,0.056l-0.007,0.056l-0.006,0.055l-0.006,0.056l-0.005,0.056l-0.006,0.056l-0.005,0.055l-0.005,0.056l-0.005,0.056l-0.004,0.056l-0.004,0.056l-0.005,0.055l-0.003,0.056l-0.004,0.056l-0.004,0.056l-0.003,0.056l-0.003,0.056l-0.003,0.056l-0.002,0.056l-0.002,0.055l-0.003,0.056l-0.001,0.056l-0.002,0.056l-0.002,0.056l-0.001,0.056l-0.001,0.056l-0.001,0.056l0,0.056l0,0.056l-0.001,0.056l0.001,0.056l0,0.056l0,0.056l0.001,0.056l0.001,0.055l0.001,0.056l0.002,0.056l0.001,0.056l0.002,0.056l0.002,0.056l0.003,0.056l0.002,0.056l0.003,0.056l0.003,0.055l0.003,0.056l0.003,0.056l0.004,0.056l0.004,0.056l0.004,0.056l0.004,0.055l0.005,0.056l0.004,0.056l0.005,0.056l0.006,0.055l0.005,0.056l0.006,0.056l0.005,0.055l0.006,0.056l0.007,0.055l0.006,0.056l0.007,0.056l0.007,0.055l0.007,0.056l0.007,0.055l0.008,0.056l0.008,0.055l0.008,0.055l0.008,0.056l0.008,0.055l0.009,0.055l0.009,0.056l0.009,0.055l0.009,0.055l0.01,0.055l0.01,0.055l0.01,0.056l0.01,0.055l0.01,0.055l0.011,0.055l0.011,0.055l0.011,0.055l0.011,0.055l0.012,0.055l0.012,0.054l0.012,0.055l0.012,0.055l0.012,0.055l0.013,0.054l0.013,0.055l0.013,0.054l0.013,0.055l0.013,0.055l0.014,0.054l0.014,0.054l0.014,0.055l0.015,0.054l0.014,0.054l0.015,0.055l0.015,0.054l0.015,0.054l0.016,0.054l0.015,0.054l0.016,0.054l0.016,0.054l0.017,0.054l0.016,0.053l0.017,0.054l0.017,0.054l0.017,0.053l0.018,0.054l0.017,0.054l0.018,0.053l0.018,0.054l0.019,0.053l0.018,0.053l0.019,0.053l0.019,0.054l0.019,0.053l0.019,0.053l0.02,0.053l0.02,0.053l0.02,0.053l0.02,0.052l0.02,0.053l0.021,0.053l0.021,0.052l0.021,0.053l0.022,0.053l0.021,0.052l0.022,0.052l0.022,0.052l0.022,0.053l0.023,0.052l0.022,0.052l0.023,0.052l0.023,0.052l0.024,0.052l0.023,0.051l0.024,0.052l0.024,0.051l0.024,0.052l0.024,0.052l0.025,0.051l0.025,0.052l0.025,0.051l0.025,0.051l0.026,0.051l0.025,0.051l0.026,0.051l0.026,0.051l0.027,0.051l0.027,0.051l0.026,0.05l0.027,0.051l0.028,0.05l0.027,0.05l0.028,0.051l0.028,0.05l0.028,0.05l0.028,0.05l0.029,0.05l0.028,0.05l0.03,0.05l0.029,0.049l0.029,0.05l0.03,0.05l0.03,0.049l0.03,0.05l0.03,0.049l0.031,0.049l0.031,0.049l0.031,0.049l0.03,0.048l0.032,0.049l0.031,0.048l0.032,0.048l0.031,0.048l0.032,0.048l0.032,0.048l0.033,0.047l0.032,0.048l0.033,0.047l0.033,0.047l0.033,0.047l0.032,0.046l0.034,0.047l0.033,0.047l0.034,0.046l0.034,0.046l0.034,0.046l0.034,0.046l0.034,0.045l0.034,0.045l0.035,0.046l0.035,0.045l0.035,0.045l0.035,0.045l0.035,0.044l0.036,0.045l0.036,0.044l0.035,0.044l0.036,0.044l0.036,0.044l0.036,0.043l0.037,0.044l0.037,0.043l0.036,0.044l0.037,0.043l0.037,0.042l0.038,0.043l0.037,0.043l0.037,0.042l0.038,0.042l0.038,0.042l0.038,0.042l0.039,0.042l0.038,0.041l0.038,0.041l0.039,0.042l0.038,0.04l0.039,0.042l0.04,0.041l0.039,0.04l0.039,0.04l0.04,0.04l0.039,0.04l0.04,0.04l0.04,0.04l0.04,0.039l0.04,0.039l0.041,0.04l0.041,0.039l0.04,0.039l0.041,0.038l0.041,0.039l0.042,0.038l0.041,0.038l0.041,0.038l0.042,0.038l0.042,0.038l0.041,0.037l0.042,0.037l0.043,0.038l0.042,0.037l0.042,0.036l0.043,0.037l0.042,0.036l0.043,0.036l0.043,0.036l0.044,0.037l0.043,0.035l0.043,0.035l0.044,0.036l0.043,0.035l0.044,0.035l0.044,0.035l0.044,0.035l0.044,0.034l0.045,0.034l0.044,0.034l0.045,0.034l0.045,0.034l0.044,0.034l0.045,0.033l0.045,0.033l0.046,0.033l0.045,0.033l0.045,0.033l0.046,0.032l0.046,0.032l0.046,0.032l0.046,0.033l0.046,0.031l0.046,0.032l0.046,0.031l0.047,0.031l0.046,0.031l0.047,0.031l0.047,0.031l0.047,0.03l0.047,0.03l0.047,0.031l0.047,0.029l0.048,0.03l0.047,0.03l0.048,0.029l0.048,0.029l0.048,0.029l0.047,0.029l0.048,0.028l0.049,0.029l0.048,0.028l0.049,0.028l0.048,0.027l0.048,0.028l0.05,0.028l0.048,0.027l0.049,0.027l0.049,0.027l0.049,0.026l0.05,0.027l0.049,0.026l0.05,0.026l0.05,0.026l0.049,0.025l0.049,0.026l0.051,0.025l0.05,0.025l0.05,0.025l0.05,0.025l0.05,0.025l0.051,0.024l0.05,0.024l0.051,0.024l0.051,0.024l0.05,0.023l0.051,0.023l0.051,0.023l0.051,0.023l0.052,0.023l0.051,0.023l0.051,0.022l0.051,0.022l0.052,0.022l0.052,0.021l0.051,0.022l0.052,0.021l0.052,0.021l0.052,0.021l0.052,0.021l0.053,0.02l0.051,0.02l0.053,0.021l0.052,0.02l0.052,0.019l0.053,0.019l0.053,0.02l0.053,0.019l0.052,0.018l0.053,0.019l0.053,0.019l0.053,0.018l0.053,0.018l0.053,0.017l0.054,0.018l0.053,0.018l0.054,0.017l0.053,0.017l0.054,0.016l0.054,0.017l0.053,0.016l0.054,0.016l0.054,0.016l0.054,0.016l0.054,0.015l0.054,0.016l0.055,0.015l0.053,0.014l0.055,0.015l0.054,0.015l0.055,0.014l0.054,0.014l0.054,0.013l0.055,0.014l0.055,0.013l0.055,0.013l0.055,0.013l0.055,0.013l0.055,0.013l0.055,0.012l0.055,0.012l0.056,0.012l0.054,0.011l0.055,0.012l0.056,0.011l0.055,0.011l0.056,0.011l0.056,0.01l0.055,0.01l0.055,0.01l0.057,0.01l0.055,0.01l0.056,0.009l0.056,0.01l0.056,0.008l0.056,0.009l0.056,0.009l0.056,0.008l0.056,0.008l0.057,0.008l0.056,0.008l0.056,0.007l0.057,0.007l0.056,0.007l0.056,0.007l0.057,0.006l0.057,0.007l0.057,0.006l0.057,0.006l0.056,0.005l0.056,0.006l0.058,0.005l0.056,0.005l0.057,0.004l0.057,0.005l0.057,0.004l0.057,0.004l0.058,0.004l0.057,0.004l0.057,0.003l0.057,0.003l0.057,0.003l0.058,0.003l0.058,0.002l0.057,0.002l0.057,0.002l0.058,0.002l0.058,0.001l0.057,0.002l0.058,0.001l0.057,0.001l0.058,0l0.059,0l0.065,0.001l173.376,-0.082l0.066,0l0.058,-0.001l0.057,0l0.058,-0.001l0.058,-0.001l0.058,-0.001l0.057,-0.002l0.057,-0.002l0.058,-0.002l0.058,-0.002l0.057,-0.002l0.057,-0.003l0.058,-0.003l0.057,-0.003l0.057,-0.004l0.058,-0.003l0.057,-0.004l0.056,-0.004l0.057,-0.004l0.058,-0.005l0.057,-0.005l0.057,-0.005l0.056,-0.005l0.057,-0.005l0.057,-0.006l0.057,-0.006l0.056,-0.006l0.056,-0.006l0.057,-0.007l0.057,-0.007l0.057,-0.007l0.055,-0.007l0.057,-0.008l0.056,-0.007l0.056,-0.008l0.057,-0.008l0.056,-0.009l0.055,-0.008l0.057,-0.009l0.056,-0.009l0.056,-0.009l0.056,-0.01l0.055,-0.01l0.056,-0.009l0.056,-0.011l0.056,-0.01l0.054,-0.01l0.056,-0.011l0.056,-0.011l0.055,-0.012l0.056,-0.011l0.054,-0.012l0.056,-0.012l0.055,-0.012l0.055,-0.012l0.055,-0.012l0.055,-0.013l0.055,-0.013l0.055,-0.013l0.054,-0.014l0.055,-0.013l0.055,-0.014l0.054,-0.014l0.054,-0.014l0.054,-0.015l0.055,-0.015l0.055,-0.014l0.053,-0.015l0.055,-0.016l0.054,-0.015l0.054,-0.016l0.054,-0.016l0.053,-0.016l0.054,-0.016l0.054,-0.017l0.053,-0.017l0.054,-0.017l0.053,-0.017l0.054,-0.017l0.053,-0.018l0.053,-0.018l0.053,-0.018l0.053,-0.018l0.053,-0.019l0.053,-0.018l0.053,-0.019l0.053,-0.019l0.052,-0.02l0.053,-0.019l0.052,-0.02l0.053,-0.02l0.052,-0.02l0.052,-0.02l0.052,-0.021l0.052,-0.02l0.052,-0.021l0.052,-0.022l0.052,-0.021l0.051,-0.021l0.052,-0.022l0.052,-0.022l0.051,-0.022l0.051,-0.022l0.051,-0.023l0.052,-0.023l0.051,-0.023l0.051,-0.023l0.051,-0.023l0.05,-0.023l0.051,-0.024l0.051,-0.025l0.05,-0.023l0.05,-0.025l0.051,-0.024l0.05,-0.025l0.05,-0.025l0.05,-0.025l0.05,-0.025l0.05,-0.026l0.049,-0.026l0.05,-0.026l0.05,-0.026l0.049,-0.026l0.049,-0.026l0.049,-0.027l0.049,-0.027l0.049,-0.027l0.049,-0.027l0.048,-0.028l0.049,-0.027l0.049,-0.028l0.048,-0.028l0.048,-0.029l0.049,-0.028l0.048,-0.029l0.048,-0.028l0.048,-0.029l0.048,-0.03l0.047,-0.029l0.047,-0.029l0.048,-0.03l0.047,-0.03l0.047,-0.03l0.047,-0.03l0.047,-0.031l0.047,-0.031l0.046,-0.03l0.047,-0.031l0.047,-0.032l0.046,-0.031l0.046,-0.032l0.046,-0.032l0.046,-0.032l0.046,-0.032l0.046,-0.032l0.045,-0.033l0.046,-0.032l0.045,-0.033l0.045,-0.033l0.045,-0.033l0.045,-0.034l0.045,-0.033l0.044,-0.034l0.045,-0.034l0.044,-0.034l0.045,-0.035l0.044,-0.034l0.044,-0.035l0.044,-0.035l0.044,-0.035l0.043,-0.035l0.044,-0.035l0.043,-0.036l0.044,-0.036l0.043,-0.036l0.042,-0.036l0.043,-0.036l0.043,-0.037l0.043,-0.036l0.042,-0.037l0.042,-0.037l0.043,-0.037l0.041,-0.037l0.042,-0.038l0.042,-0.037l0.041,-0.038l0.042,-0.038l0.041,-0.039l0.041,-0.038l0.041,-0.038l0.041,-0.039l0.041,-0.039l0.04,-0.039l0.041,-0.039l0.04,-0.04l0.04,-0.039l0.04,-0.04l0.04,-0.039l0.039,-0.041l0.04,-0.04l0.039,-0.04l0.039,-0.041l0.04,-0.041l0.039,-0.041l0.038,-0.04l0.039,-0.042l0.038,-0.041l0.038,-0.041l0.039,-0.042l0.037,-0.042l0.038,-0.042l0.038,-0.043l0.038,-0.042l0.037,-0.043l0.037,-0.042l0.037,-0.043l0.037,-0.043l0.037,-0.043l0.036,-0.043l0.037,-0.044l0.036,-0.044l0.036,-0.044l0.036,-0.044l0.036,-0.044l0.035,-0.044l0.035,-0.044l0.036,-0.046l0.035,-0.044l0.035,-0.045l0.035,-0.045l0.034,-0.046l0.035,-0.045l0.034,-0.046l0.034,-0.046l0.034,-0.046l0.034,-0.045l0.033,-0.047l0.034,-0.047l0.033,-0.046l0.033,-0.046l0.033,-0.048l0.033,-0.047l0.032,-0.046l0.032,-0.048l0.033,-0.048l0.032,-0.048l0.032,-0.047l0.032,-0.049l0.031,-0.048l0.031,-0.048l0.031,-0.048l0.031,-0.049l0.031,-0.049l0.031,-0.049l0.031,-0.049l0.03,-0.049l0.03,-0.049l0.03,-0.05l0.029,-0.05l0.03,-0.049l0.029,-0.05l0.029,-0.05l0.029,-0.05l0.028,-0.05l0.029,-0.05l0.028,-0.05l0.027,-0.05l0.028,-0.051l0.027,-0.05l0.028,-0.051l0.027,-0.051l0.027,-0.05l0.026,-0.05l0.026,-0.051l0.027,-0.052l0.025,-0.05l0.026,-0.052l0.026,-0.051l0.025,-0.05l0.025,-0.052l0.025,-0.052l0.024,-0.051l0.024,-0.051l0.025,-0.053l0.023,-0.05l0.024,-0.052l0.024,-0.052l0.023,-0.052l0.023,-0.052l0.023,-0.051l0.022,-0.053l0.023,-0.052l0.022,-0.052l0.022,-0.053l0.022,-0.052l0.021,-0.052l0.022,-0.053l0.021,-0.052l0.021,-0.053l0.02,-0.053l0.02,-0.052l0.021,-0.054l0.02,-0.052l0.019,-0.053l0.02,-0.053l0.019,-0.053l0.019,-0.053l0.019,-0.054l0.019,-0.053l0.018,-0.053l0.019,-0.054l0.018,-0.053l0.018,-0.054l0.017,-0.053l0.018,-0.054l0.017,-0.054l0.017,-0.053l0.016,-0.053l0.017,-0.055l0.016,-0.054l0.016,-0.053l0.016,-0.054l0.016,-0.054l0.015,-0.054l0.015,-0.055l0.015,-0.054l0.015,-0.054l0.015,-0.055l0.014,-0.054l0.014,-0.054l0.014,-0.054l0.014,-0.055l0.013,-0.055l0.013,-0.054l0.013,-0.055l0.013,-0.054l0.013,-0.055l0.012,-0.055l0.012,-0.055l0.012,-0.054l0.012,-0.055l0.011,-0.055l0.011,-0.055l0.011,-0.055l0.011,-0.055l0.011,-0.055l0.01,-0.054l0.01,-0.056l0.01,-0.055l0.01,-0.055l0.01,-0.056l0.009,-0.054l0.009,-0.056l0.009,-0.056l0.008,-0.055l0.009,-0.054l0.008,-0.056l0.008,-0.056l0.008,-0.055l0.007,-0.056l0.008,-0.055l0.007,-0.056l0.007,-0.056l0.006,-0.055l0.007,-0.055l0.006,-0.056l0.006,-0.055l0.006,-0.056l0.005,-0.056l0.005,-0.055l0.006,-0.056l0.004,-0.056l0.005,-0.056l0.005,-0.055l0.004,-0.056l0.004,-0.056l0.004,-0.056l0.003,-0.056l0.004,-0.056l0.003,-0.055l0.003,-0.056l0.002,-0.056l0.003,-0.056l0.002,-0.056l0.002,-0.056l0.002,-0.055l0.001,-0.056l0.002,-0.056l0.001,-0.056l0.001,-0.057l0.001,-0.055l0,-0.056l0,-0.056l0,-0.056l0,-0.056l0,-0.056l-0.001,-0.056l-0.001,-0.056l-0.001,-0.056l-0.001,-0.056l-0.002,-0.056l-0.001,-0.055l-0.002,-0.056l-0.002,-0.056l-0.003,-0.056l-0.002,-0.056l-0.003,-0.056l-0.003,-0.056l-0.003,-0.056l-0.004,-0.055l-0.004,-0.056l-0.004,-0.057l-0.004,-0.055l-0.004,-0.055l-0.005,-0.057l-0.005,-0.056l-0.005,-0.055l-0.005,-0.056l-0.005,-0.056l-0.006,-0.055l-0.006,-0.056l-0.006,-0.056l-0.006,-0.056l-0.007,-0.055l-0.007,-0.056l-0.007,-0.055l-0.007,-0.056l-0.008,-0.056l-0.007,-0.056l-0.008,-0.055l-0.008,-0.055l-0.009,-0.056l-0.008,-0.056l-0.009,-0.055l-0.009,-0.055l-0.009,-0.056l-0.01,-0.055l-0.009,-0.055l-0.01,-0.055l-0.01,-0.055l-0.011,-0.057l-0.01,-0.054l-0.011,-0.055l-0.011,-0.055l-0.011,-0.055l-0.012,-0.056l-0.012,-0.055l-0.011,-0.055l-0.013,-0.055l-0.012,-0.055l-0.013,-0.055l-0.012,-0.054l-0.013,-0.055l-0.014,-0.055l-0.013,-0.054l-0.014,-0.055l-0.014,-0.055l-0.014,-0.055l-0.014,-0.054l-0.014,-0.054l-0.015,-0.055l-0.015,-0.055l-0.016,-0.054l-0.015,-0.055l-0.016,-0.054l-0.015,-0.053l-0.017,-0.055l-0.016,-0.055l-0.017,-0.053l-0.016,-0.054l-0.017,-0.054l-0.018,-0.054l-0.017,-0.055l-0.018,-0.053l-0.017,-0.054l-0.019,-0.054l-0.018,-0.054l-0.019,-0.053l-0.018,-0.054l-0.02,-0.054l-0.019,-0.053l-0.019,-0.053l-0.02,-0.053l-0.02,-0.054l-0.02,-0.054l-0.02,-0.053l-0.021,-0.052l-0.02,-0.054l-0.022,-0.053l-0.021,-0.053l-0.021,-0.052l-0.022,-0.054l-0.022,-0.052l-0.022,-0.053l-0.023,-0.053l-0.022,-0.052l-0.023,-0.053l-0.023,-0.053l-0.023,-0.052l-0.024,-0.052l-0.023,-0.052l-0.024,-0.053l-0.024,-0.052l-0.025,-0.052l-0.025,-0.052l-0.024,-0.052l-0.025,-0.052l-0.026,-0.052l-0.025,-0.052l-0.026,-0.052l-0.026,-0.051l-0.03,-0.059l-86.768,-169.78l-0.033,-0.063l-0.029,-0.056l-0.028,-0.055l-0.03,-0.055l-0.029,-0.055l-0.03,-0.055l-0.03,-0.054l-0.03,-0.055l-0.03,-0.054l-0.031,-0.054l-0.03,-0.054l-0.031,-0.054l-0.031,-0.053l-0.032,-0.054l-0.031,-0.053l-0.032,-0.052l-0.032,-0.054l-0.032,-0.052l-0.032,-0.052l-0.033,-0.053l-0.033,-0.052l-0.033,-0.052l-0.033,-0.051l-0.034,-0.052l-0.033,-0.052l-0.034,-0.051l-0.034,-0.051l-0.034,-0.051l-0.035,-0.051l-0.035,-0.05l-0.035,-0.051l-0.034,-0.05l-0.036,-0.05l-0.035,-0.05l-0.036,-0.049l-0.036,-0.05l-0.036,-0.049l-0.036,-0.049l-0.036,-0.049l-0.037,-0.048l-0.037,-0.049l-0.037,-0.049l-0.037,-0.048l-0.038,-0.048l-0.037,-0.048l-0.038,-0.047l-0.038,-0.048l-0.038,-0.047l-0.038,-0.047l-0.039,-0.047l-0.039,-0.047l-0.039,-0.047l-0.039,-0.046l-0.039,-0.046l-0.04,-0.047l-0.039,-0.045l-0.04,-0.046l-0.04,-0.046l-0.04,-0.045l-0.041,-0.045l-0.04,-0.045l-0.041,-0.045l-0.041,-0.044l-0.041,-0.044l-0.042,-0.045l-0.041,-0.044l-0.042,-0.043l-0.041,-0.044l-0.042,-0.043l-0.043,-0.044l-0.042,-0.043l-0.043,-0.043l-0.042,-0.042l-0.043,-0.043l-0.043,-0.042l-0.044,-0.042l-0.043,-0.042l-0.044,-0.042l-0.043,-0.041l-0.044,-0.042l-0.045,-0.041l-0.044,-0.041l-0.044,-0.04l-0.045,-0.041l-0.045,-0.04l-0.045,-0.041l-0.044,-0.039l-0.046,-0.04l-0.045,-0.04l-0.046,-0.039l-0.046,-0.039l-0.045,-0.039l-0.046,-0.039l-0.047,-0.038l-0.046,-0.039l-0.047,-0.038l-0.046,-0.038l-0.047,-0.038l-0.047,-0.037l-0.047,-0.038l-0.048,-0.037l-0.047,-0.037l-0.048,-0.036l-0.047,-0.037l-0.049,-0.036l-0.048,-0.036l-0.048,-0.036l-0.048,-0.036l-0.049,-0.035l-0.048,-0.036l-0.049,-0.035l-0.049,-0.035l-0.049,-0.034l-0.049,-0.035l-0.05,-0.034l-0.049,-0.034l-0.05,-0.034l-0.05,-0.033l-0.05,-0.034l-0.05,-0.033l-0.05,-0.033l-0.05,-0.033l-0.051,-0.032l-0.051,-0.033l-0.051,-0.032l-0.05,-0.032l-0.051,-0.031l-0.052,-0.032l-0.051,-0.031l-0.051,-0.031l-0.052,-0.031l-0.052,-0.031l-0.052,-0.03l-0.051,-0.03l-0.053,-0.03l-0.052,-0.03l-0.052,-0.029l-0.053,-0.029l-0.052,-0.029l-0.053,-0.029l-0.053,-0.029l-0.053,-0.028l-0.053,-0.028l-0.053,-0.028l-0.054,-0.028l-0.053,-0.028l-0.054,-0.027l-0.053,-0.027l-0.054,-0.027l-0.054,-0.026l-0.054,-0.026l-0.054,-0.027l-0.055,-0.026l-0.054,-0.025l-0.055,-0.026l-0.054,-0.025l-0.055,-0.025l-0.055,-0.025l-0.055,-0.024l-0.055,-0.024l-0.055,-0.024l-0.055,-0.024l-0.055,-0.024l-0.056,-0.023l-0.056,-0.023l-0.055,-0.023l-0.056,-0.023l-0.056,-0.022l-0.056,-0.022l-0.056,-0.022l-0.056,-0.022l-0.057,-0.022l-0.056,-0.021l-0.057,-0.021l-0.056,-0.021l-0.057,-0.02l-0.057,-0.02l-0.056,-0.02l-0.058,-0.02l-0.057,-0.02l-0.057,-0.019l-0.057,-0.019l-0.057,-0.019l-0.058,-0.019l-0.057,-0.018l-0.058,-0.018l-0.058,-0.018l-0.057,-0.018l-0.058,-0.017l-0.058,-0.017l-0.058,-0.017l-0.059,-0.017l-0.058,-0.016l-0.058,-0.016l-0.059,-0.016l-0.058,-0.016l-0.058,-0.015l-0.059,-0.015l-0.059,-0.015l-0.059,-0.015l-0.059,-0.014l-0.059,-0.015l-0.059,-0.014l-0.059,-0.013l-0.059,-0.014l-0.059,-0.013l-0.06,-0.013l-0.059,-0.013l-0.06,-0.012l-0.059,-0.012l-0.06,-0.012l-0.06,-0.012l-0.059,-0.011l-0.06,-0.011l-0.06,-0.011l-0.06,-0.011l-0.06,-0.01l-0.061,-0.01l-0.06,-0.01l-0.06,-0.01l-0.06,-0.009l-0.061,-0.009l-0.06,-0.009l-0.061,-0.009l-0.061,-0.008l-0.06,-0.008l-0.061,-0.008l-0.061,-0.008l-0.061,-0.007l-0.061,-0.007l-0.061,-0.007l-0.061,-0.006l-0.061,-0.007l-0.061,-0.006l-0.062,-0.005l-0.061,-0.006l-0.061,-0.005l-0.062,-0.005l-0.061,-0.005l-0.062,-0.004l-0.062,-0.004l-0.061,-0.004l-0.062,-0.004l-0.062,-0.003l-0.062,-0.003l-0.062,-0.003l-0.062,-0.003l-0.062,-0.002l-0.062,-0.002l-0.062,-0.002l-0.062,-0.001l-0.062,-0.001l-0.063,-0.001l-0.062,-0.001l-0.063,0l-0.062,0l-0.063,0Z" style="fill:#ffa200;"/><rect x="107.52" y="168.96" width="30.72" height="30.72" style="fill:#fff;"/><rect x="107.52" y="76.8" width="30.72" height="76.8" style="fill:#fff;"/></svg>